<svg width="36" height="36" viewBox="0 0 36 36" fill="none" xmlns="http://www.w3.org/2000/svg">
<g clip-path="url(#clip0_2_804)">
<path d="M36 0H0V36H36V0Z" fill="#0E3476"/>
<path d="M27 18C27 13.05 22.95 9 18 9C13.05 9 9 13.05 9 18C9 22.5 12.2625 26.2125 16.5375 26.8875V20.5875H14.2875V18H16.5375V15.975C16.5375 13.725 17.8875 12.4875 19.9125 12.4875C20.925 12.4875 21.9375 12.7125 21.9375 12.7125V14.9625H20.8125C19.6875 14.9625 19.35 15.6375 19.35 16.3125V18H21.825L21.375 20.5875H19.2375V27C23.7375 26.325 27 22.5 27 18Z" fill="#D9D9D9"/>
</g>
<defs>
<clipPath id="clip0_2_804">
<path d="M0 4C0 1.79086 1.79086 0 4 0H32C34.2091 0 36 1.79086 36 4V32C36 34.2091 34.2091 36 32 36H4C1.79086 36 0 34.2091 0 32V4Z" fill="white"/>
</clipPath>
</defs>
</svg>
