<svg width="36" height="36" viewBox="0 0 36 36" fill="none" xmlns="http://www.w3.org/2000/svg">
<g clip-path="url(#clip0_2_805)">
<path d="M36 0H0V36H36V0Z" fill="#0E3476"/>
<path d="M18 10.3501C20.475 10.3501 20.8125 10.3501 21.825 10.3501C22.725 10.3501 23.175 10.5751 23.5125 10.6876C23.9625 10.9126 24.3 11.0251 24.6375 11.3626C24.975 11.7001 25.2 12.0376 25.3125 12.4876C25.425 12.8251 25.5375 13.2751 25.65 14.1751C25.65 15.1876 25.65 15.4126 25.65 18.0001C25.65 20.5876 25.65 20.8126 25.65 21.8251C25.65 22.7251 25.425 23.1751 25.3125 23.5126C25.0875 23.9626 24.975 24.3001 24.6375 24.6376C24.3 24.9751 23.9625 25.2001 23.5125 25.3126C23.175 25.4251 22.725 25.5376 21.825 25.6501C20.8125 25.6501 20.5875 25.6501 18 25.6501C15.4125 25.6501 15.1875 25.6501 14.175 25.6501C13.275 25.6501 12.825 25.4251 12.4875 25.3126C12.0375 25.0876 11.7 24.9751 11.3625 24.6376C11.025 24.3001 10.8 23.9626 10.6875 23.5126C10.575 23.1751 10.4625 22.7251 10.35 21.8251C10.35 20.8126 10.35 20.5876 10.35 18.0001C10.35 15.4126 10.35 15.1876 10.35 14.1751C10.35 13.2751 10.575 12.8251 10.6875 12.4876C10.9125 12.0376 11.025 11.7001 11.3625 11.3626C11.7 11.0251 12.0375 10.8001 12.4875 10.6876C12.825 10.5751 13.275 10.4626 14.175 10.3501C15.1875 10.3501 15.525 10.3501 18 10.3501ZM18 8.6626C15.4125 8.6626 15.1875 8.6626 14.175 8.6626C13.1625 8.6626 12.4875 8.8876 11.925 9.1126C11.3625 9.3376 10.8 9.6751 10.2375 10.2376C9.67501 10.8001 9.45001 11.2501 9.11251 11.9251C8.88751 12.4876 8.77501 13.1626 8.66251 14.1751C8.66251 15.1876 8.66251 15.5251 8.66251 18.0001C8.66251 20.5876 8.66251 20.8126 8.66251 21.8251C8.66251 22.8376 8.88751 23.5126 9.11251 24.0751C9.33751 24.6376 9.67501 25.2001 10.2375 25.7626C10.8 26.3251 11.25 26.5501 11.925 26.8876C12.4875 27.1126 13.1625 27.2251 14.175 27.3376C15.1875 27.3376 15.525 27.3376 18 27.3376C20.475 27.3376 20.8125 27.3376 21.825 27.3376C22.8375 27.3376 23.5125 27.1126 24.075 26.8876C24.6375 26.6626 25.2 26.3251 25.7625 25.7626C26.325 25.2001 26.55 24.7501 26.8875 24.0751C27.1125 23.5126 27.225 22.8376 27.3375 21.8251C27.3375 20.8126 27.3375 20.4751 27.3375 18.0001C27.3375 15.5251 27.3375 15.1876 27.3375 14.1751C27.3375 13.1626 27.1125 12.4876 26.8875 11.9251C26.6625 11.3626 26.325 10.8001 25.7625 10.2376C25.2 9.6751 24.75 9.4501 24.075 9.1126C23.5125 8.8876 22.8375 8.7751 21.825 8.6626C20.8125 8.6626 20.5875 8.6626 18 8.6626Z" fill="#D9D9D9"/>
<path d="M18 13.1626C15.3 13.1626 13.1625 15.3001 13.1625 18.0001C13.1625 20.7001 15.3 22.8376 18 22.8376C20.7 22.8376 22.8375 20.7001 22.8375 18.0001C22.8375 15.3001 20.7 13.1626 18 13.1626ZM18 21.1501C16.3125 21.1501 14.85 19.8001 14.85 18.0001C14.85 16.3126 16.2 14.8501 18 14.8501C19.6875 14.8501 21.15 16.2001 21.15 18.0001C21.15 19.6876 19.6875 21.1501 18 21.1501Z" fill="#D9D9D9"/>
<path d="M22.95 14.1751C23.5713 14.1751 24.075 13.6714 24.075 13.0501C24.075 12.4288 23.5713 11.9251 22.95 11.9251C22.3287 11.9251 21.825 12.4288 21.825 13.0501C21.825 13.6714 22.3287 14.1751 22.95 14.1751Z" fill="#D9D9D9"/>
</g>
<defs>
<clipPath id="clip0_2_805">
<path d="M0 4C0 1.79086 1.79086 0 4 0H32C34.2091 0 36 1.79086 36 4V32C36 34.2091 34.2091 36 32 36H4C1.79086 36 0 34.2091 0 32V4Z" fill="white"/>
</clipPath>
</defs>
</svg>
